<svg width="21" height="20" viewBox="0 0 21 20" fill="none" xmlns="http://www.w3.org/2000/svg">
<path opacity="0.2" d="M8.02604 19.3977C7.50941 19.393 7.00535 19.2379 6.57547 18.9513C6.14559 18.6647 5.80852 18.2591 5.60546 17.784C4.98644 16.3682 3.65512 13.6992 1.69722 11.7325C1.45079 11.4876 1.26035 11.1921 1.13901 10.8666C1.01767 10.541 0.968294 10.193 0.994292 9.84651C1.02029 9.50003 1.12104 9.16329 1.28961 8.85947C1.45818 8.55564 1.69057 8.29194 1.97079 8.08651C2.78502 7.4793 3.71534 7.04589 4.70404 6.81318C4.91064 6.76448 5.12213 6.73952 5.3344 6.7388C6.01987 6.73912 6.68062 6.99488 7.18766 7.45615L7.19775 7.46498C7.35324 7.60832 7.53874 7.71518 7.74075 7.77777C7.94276 7.84036 8.15619 7.85711 8.36548 7.82679C8.57478 7.79648 8.77468 7.71987 8.95063 7.60253C9.12658 7.4852 9.27415 7.3301 9.38258 7.14854C10.4214 5.4516 11.7969 3.67777 13.5543 2.31114C14.7416 1.36494 16.1782 0.784147 17.6895 0.639426C17.8899 0.623037 18.0916 0.614212 18.2883 0.614212C18.4283 0.614212 18.5695 0.614212 18.7094 0.626819C19.0189 0.641671 19.32 0.732333 19.5862 0.890832C19.8524 1.04933 20.0756 1.27081 20.2361 1.5358C20.4523 1.90562 20.5394 2.3368 20.4837 2.76153C20.428 3.18625 20.2327 3.58041 19.9285 3.882C17.7462 6.00632 13.722 10.9912 12.4663 16.2018C12.3788 16.5759 12.2172 16.9288 11.9912 17.2395C11.7651 17.5502 11.4792 17.8125 11.1501 18.0109C10.5803 18.345 9.81753 18.7674 9.27794 19.0661C8.89527 19.2805 8.46462 19.3945 8.02604 19.3977Z" fill="black"/>
<path d="M7.5441 18.8935C7.02743 18.8889 6.5233 18.7339 6.09339 18.4472C5.66348 18.1606 5.32644 17.7549 5.12351 17.2798C4.5045 15.864 3.17318 13.195 1.21527 11.2283C0.967624 10.9837 0.775993 10.6884 0.653611 10.3625C0.531228 10.0367 0.481009 9.68821 0.50642 9.34109C0.53183 8.99397 0.632266 8.6565 0.800792 8.35197C0.969319 8.04745 1.20192 7.78312 1.48255 7.57724C2.29896 6.97059 3.23149 6.53845 4.2221 6.30769C4.65832 6.20425 5.11319 6.20875 5.54728 6.32079C5.98138 6.43283 6.38161 6.64903 6.71328 6.95066L6.72211 6.95948C6.8776 7.10283 7.06311 7.20968 7.26511 7.27228C7.46712 7.33487 7.68055 7.35161 7.88985 7.3213C8.09914 7.29099 8.29905 7.21437 8.475 7.09704C8.65094 6.97971 8.79851 6.82461 8.90694 6.64304C9.94578 4.94611 11.3212 3.17227 13.0787 1.80691C14.2656 0.859871 15.7023 0.27859 17.2138 0.133933C17.4143 0.117544 17.616 0.108719 17.8127 0.108719C17.9526 0.108719 18.0951 0.108719 18.2338 0.121326C18.5432 0.136178 18.8443 0.22684 19.1105 0.385339C19.3768 0.543839 19.6 0.76532 19.7605 1.03031C19.9767 1.40013 20.0637 1.83131 20.0081 2.25603C19.9524 2.68076 19.7571 3.07492 19.4529 3.37651C17.2718 5.50083 13.2463 10.4857 11.9907 15.6963C11.9026 16.0712 11.7401 16.4246 11.5129 16.7356C11.2858 17.0465 10.9985 17.3087 10.6682 17.5067C10.0983 17.8408 9.33559 18.2631 8.796 18.5619C8.41333 18.7762 7.98268 18.8903 7.5441 18.8935Z" fill="url(#paint0_linear)"/>
<path d="M2.31071 8.85937C2.97559 8.35351 3.74059 7.99508 4.5548 7.80793C4.76011 7.7591 4.97421 7.76089 5.17868 7.81316C5.38314 7.86543 5.57184 7.96661 5.72853 8.10798C6.46731 8.77616 7.75829 10.202 8.75426 12.4423C8.77275 12.4866 8.80707 12.5224 8.85051 12.5427C8.89396 12.563 8.94342 12.5665 8.98925 12.5523C9.03507 12.5381 9.07397 12.5074 9.09836 12.4661C9.12274 12.4248 9.13086 12.3758 9.12113 12.3289C9.0375 11.784 8.91104 11.2465 8.74292 10.7215C8.67209 10.512 8.68381 10.2834 8.7757 10.0823C9.4817 8.53662 11.1711 5.21084 13.9686 3.03483C14.9326 2.26439 16.0991 1.78972 17.3272 1.66821C17.623 1.64423 17.9202 1.64423 18.216 1.66821C18.2813 1.67564 18.3432 1.70149 18.3943 1.74273C18.4455 1.78398 18.4839 1.83893 18.5051 1.90117C18.5262 1.96341 18.5292 2.03038 18.5138 2.09427C18.4983 2.15816 18.465 2.21633 18.4177 2.26201C16.78 3.86187 12.0158 9.20229 10.542 15.3256C10.5019 15.5002 10.4272 15.665 10.3221 15.8101C10.2171 15.9552 10.0839 16.0777 9.93052 16.1703C9.39975 16.4817 8.68618 16.8788 8.09112 17.2066C7.95024 17.2836 7.79473 17.3302 7.63469 17.3432C7.47465 17.3562 7.31366 17.3354 7.16218 17.2821C7.01071 17.2289 6.87213 17.1443 6.75546 17.034C6.63878 16.9237 6.54662 16.7901 6.48496 16.6418C5.79913 15.0709 4.37451 12.2469 2.24894 10.1188C2.16405 10.0353 2.09777 9.93483 2.05446 9.82392C2.01114 9.713 1.99176 9.59419 1.9976 9.47526C2.00343 9.35633 2.03434 9.23998 2.0883 9.13384C2.14227 9.02769 2.21806 8.93416 2.31071 8.85937Z" fill="url(#paint1_linear)"/>
<defs>
<linearGradient id="paint0_linear" x1="6.8444" y1="3.4572" x2="15.1286" y2="12.0175" gradientUnits="userSpaceOnUse">
<stop stop-color="#E6E7E8"/>
<stop offset="1" stop-color="white"/>
</linearGradient>
<linearGradient id="paint1_linear" x1="7.77594" y1="4.41784" x2="14.217" y2="11.0745" gradientUnits="userSpaceOnUse">
<stop stop-color="#0066FF"/>
<stop offset="1" stop-color="#0099FF"/>
</linearGradient>
</defs>
</svg>
